<?xml version="1.0" ?><svg style="enable-background:new 0 0 24 24;" version="1.1" viewBox="0 0 24 24" xml:space="preserve" xmlns="http://www.w3.org/2000/svg" xmlns:xlink="http://www.w3.org/1999/xlink"><style type="text/css">
	.st0{display:none;}
</style><g class="st0" id="grid"/><g id="icon"><path d="M23.5,3h-7V1.355C16.5,0.608,15.892,0,15.145,0H8.855C8.108,0,7.5,0.608,7.5,1.355V3h-7C0.224,3,0,3.224,0,3.5   S0.224,4,0.5,4h3v18.023C3.5,23.113,4.387,24,5.477,24h13.047c1.09,0,1.977-0.887,1.977-1.977V4h3C23.776,4,24,3.776,24,3.5   S23.776,3,23.5,3z M8.5,1.355C8.5,1.16,8.66,1,8.855,1h6.289C15.34,1,15.5,1.16,15.5,1.355V3h-7V1.355z M19.5,22.023   c0,0.539-0.438,0.977-0.977,0.977H5.477C4.938,23,4.5,22.562,4.5,22.023V4h15V22.023z"/><path d="M8,20c0.276,0,0.5-0.224,0.5-0.5v-12C8.5,7.224,8.276,7,8,7S7.5,7.224,7.5,7.5v12C7.5,19.776,7.724,20,8,20z"/><path d="M12,20c0.276,0,0.5-0.224,0.5-0.5v-12C12.5,7.224,12.276,7,12,7s-0.5,0.224-0.5,0.5v12C11.5,19.776,11.724,20,12,20z"/><path d="M16,20c0.276,0,0.5-0.224,0.5-0.5v-12C16.5,7.224,16.276,7,16,7s-0.5,0.224-0.5,0.5v12C15.5,19.776,15.724,20,16,20z"/></g></svg>